<?xml version="1.0" encoding="utf-8"?>
<!-- Generator: Adobe Illustrator 22.0.1, SVG Export Plug-In . SVG Version: 6.00 Build 0)  -->
<svg version="1.1" id="Layer_1" xmlns="http://www.w3.org/2000/svg" xmlns:xlink="http://www.w3.org/1999/xlink" x="0px" y="0px"
	 viewBox="0 0 50 32.1" style="enable-background:new 0 0 50 32.1;" xml:space="preserve">
<g id="gp">
	<path fill="#808080" d="M24.1,3.1c-1.8-0.1-2.9-0.7-4.1-1.3c-1.5-0.8-3.1-1.6-6-1.6c-6,0-14,13.7-14,24c0,4.7,2.5,8,6,8c5.3,0,8.9-2.9,12.1-5.4
		c2.4-1.9,4.6-3.6,6.9-3.6s4.5,1.7,6.9,3.6c3.2,2.5,6.8,5.4,12.1,5.4c3.5,0,6-3.3,6-8c0-10.3-8-24-14-24c-2.8,0-4.5,0.9-6,1.6
		c-1.2,0.6-2.2,1.1-3.9,1.3L24.1,3.1z M37,9.1c1.1,0,2,0.9,2,2s-0.9,2-2,2s-2-0.9-2-2S35.9,9.1,37,9.1z M12,10.1h3v3h3v3h-3v3h-3v-3
		H9v-3h3V10.1z M33,13.1c1.1,0,2,0.9,2,2s-0.9,2-2,2s-2-0.9-2-2S31.9,13.1,33,13.1z M41,13.1c1.1,0,2,0.9,2,2s-0.9,2-2,2s-2-0.9-2-2
		S39.9,13.1,41,13.1z M37,17.1c1.1,0,2,0.9,2,2s-0.9,2-2,2s-2-0.9-2-2S35.9,17.1,37,17.1z"/>
</g>
</svg>
